<svg width="65" height="66" viewBox="0 0 65 66" fill="none" xmlns="http://www.w3.org/2000/svg">
<path d="M32.0251 19.75C35.5171 19.75 38.8661 21.1372 41.3353 23.6064C43.8046 26.0757 45.1918 29.4246 45.1918 32.9167C45.1918 36.4087 43.8046 39.7577 41.3353 42.2269C38.8661 44.6961 35.5171 46.0833 32.0251 46.0833C28.5331 46.0833 25.1841 44.6961 22.7149 42.2269C20.2456 39.7577 18.8584 36.4087 18.8584 32.9167C18.8584 29.4246 20.2456 26.0757 22.7149 23.6064C25.1841 21.1372 28.5331 19.75 32.0251 19.75ZM32.0251 26.3333C30.2791 26.3333 28.6046 27.0269 27.37 28.2615C26.1354 29.4962 25.4418 31.1707 25.4418 32.9167C25.4418 34.6627 26.1354 36.3372 27.37 37.5718C28.6046 38.8064 30.2791 39.5 32.0251 39.5C33.7711 39.5 35.4456 38.8064 36.6802 37.5718C37.9148 36.3372 38.6084 34.6627 38.6084 32.9167C38.6084 31.1707 37.9148 29.4962 36.6802 28.2615C35.4456 27.0269 33.7711 26.3333 32.0251 26.3333ZM25.4418 65.8333C24.6188 65.8333 23.9276 65.2408 23.7959 64.4508L22.578 55.7279C20.5043 54.905 18.7268 53.7858 17.0151 52.4692L8.81884 55.7938C8.09467 56.0571 7.20592 55.7937 6.81092 55.0696L0.227588 43.6804C0.0261232 43.3413 -0.0449004 42.9403 0.0277987 42.5526C0.100498 42.1649 0.311942 41.8169 0.622588 41.5737L7.56801 36.1096L7.33759 32.9167L7.56801 29.625L0.622588 24.2596C0.311942 24.0164 0.100498 23.6685 0.0277987 23.2807C-0.0449004 22.893 0.0261232 22.4921 0.227588 22.1529L6.81092 10.7637C7.20592 10.0396 8.09467 9.74333 8.81884 10.0396L17.0151 13.3313C18.7268 12.0475 20.5043 10.9283 22.578 10.1054L23.7959 1.3825C23.9276 0.5925 24.6188 0 25.4418 0H38.6084C39.4313 0 40.1226 0.5925 40.2543 1.3825L41.4722 10.1054C43.5459 10.9283 45.3234 12.0475 47.0351 13.3313L55.2313 10.0396C55.9555 9.74333 56.8443 10.0396 57.2393 10.7637L63.8226 22.1529C64.2505 22.8771 64.053 23.7658 63.4276 24.2596L56.4822 29.625L56.7126 32.9167L56.4822 36.2083L63.4276 41.5737C64.053 42.0675 64.2505 42.9562 63.8226 43.6804L57.2393 55.0696C56.8443 55.7937 55.9555 56.09 55.2313 55.7938L47.0351 52.5021C45.3234 53.7858 43.5459 54.905 41.4722 55.7279L40.2543 64.4508C40.1226 65.2408 39.4313 65.8333 38.6084 65.8333H25.4418ZM29.5563 6.58333L28.3384 15.1746C24.3884 15.9975 20.8993 18.1042 18.3647 21.0338L10.4318 17.6104L7.96301 21.8896L14.9084 26.9917C13.5918 30.8319 13.5918 35.0014 14.9084 38.8417L7.93009 43.9767L10.3988 48.2558L18.3976 44.8325C20.9322 47.7292 24.3884 49.8358 28.3055 50.6258L29.5234 59.25H34.5268L35.7447 50.6587C39.6618 49.8358 43.118 47.7292 45.6526 44.8325L53.6513 48.2558L56.1201 43.9767L49.1418 38.8746C50.4584 35.0233 50.4584 30.8429 49.1418 26.9917L56.0872 21.8896L53.6184 17.6104L45.6855 21.0338C43.099 18.0394 39.5904 15.9898 35.7118 15.2075L34.4938 6.58333H29.5563Z" fill="white"/>
</svg>
