<svg width="67" height="67" viewBox="0 0 67 67" fill="none" xmlns="http://www.w3.org/2000/svg">
<path d="M61.4168 37.6874C61.4168 42.6007 57.7877 46.6766 53.0418 47.3466V55.8332C53.0418 57.314 52.4536 58.7342 51.4065 59.7813C50.3594 60.8283 48.9393 61.4166 47.4585 61.4166H36.8502V60.5791C36.8502 58.58 36.056 56.6628 34.6425 55.2493C33.2289 53.8357 31.3117 53.0416 29.3127 53.0416C25.1252 53.0416 21.7752 56.4195 21.7752 60.5791V61.4166H11.1668C9.68604 61.4166 8.26589 60.8283 7.21882 59.7813C6.17174 58.7342 5.5835 57.314 5.5835 55.8332V45.2249H6.421C10.5806 45.2249 13.9585 41.8749 13.9585 37.6874C13.9585 33.4999 10.5806 30.1499 6.421 30.1499H5.5835V19.5416C5.5835 18.0608 6.17174 16.6406 7.21882 15.5936C8.26589 14.5465 9.68604 13.9583 11.1668 13.9583H19.6535C20.3235 9.21242 24.3993 5.58325 29.3127 5.58325C34.226 5.58325 38.3018 9.21242 38.9718 13.9583H47.4585C48.9393 13.9583 50.3594 14.5465 51.4065 15.5936C52.4536 16.6406 53.0418 18.0608 53.0418 19.5416V28.0282C57.7877 28.6982 61.4168 32.7741 61.4168 37.6874ZM47.4585 41.8749H51.646C52.7566 41.8749 53.8217 41.4337 54.607 40.6484C55.3923 39.8631 55.8335 38.798 55.8335 37.6874C55.8335 36.5768 55.3923 35.5117 54.607 34.7264C53.8217 33.9411 52.7566 33.4999 51.646 33.4999H47.4585V19.5416H33.5002V15.3541C33.5002 14.2435 33.059 13.1784 32.2737 12.3931C31.4884 11.6078 30.4233 11.1666 29.3127 11.1666C28.2021 11.1666 27.137 11.6078 26.3517 12.3931C25.5663 13.1784 25.1252 14.2435 25.1252 15.3541V19.5416H11.1668V25.4599C16.0802 27.3582 19.5418 32.1041 19.5418 37.6874C19.5418 43.2707 16.0522 48.0166 11.1668 49.9149V55.8332H17.0852C18.0418 53.3676 19.7212 51.2485 21.9032 49.754C24.0852 48.2595 26.6679 47.4593 29.3127 47.4582C34.896 47.4582 39.6418 50.9478 41.5402 55.8332H47.4585V41.8749Z" fill="white"/>
</svg>
